<svg width="512" height="512" viewBox="0 0 512 512" fill="none" xmlns="http://www.w3.org/2000/svg">
<path fill-rule="evenodd" clip-rule="evenodd" d="M56 32C49.6348 32 43.5303 34.5286 39.0294 39.0294C34.5286 43.5303 32 49.6348 32 56C32 62.3652 34.5286 68.4697 39.0294 72.9706C43.5303 77.4714 49.6348 80 56 80H328C334.365 80 340.47 77.4714 344.971 72.9706C349.471 68.4697 352 62.3652 352 56C352 49.6348 349.471 43.5303 344.971 39.0294C340.47 34.5286 334.365 32 328 32H56ZM32 152C32 145.635 34.5286 139.53 39.0294 135.029C43.5303 130.529 49.6348 128 56 128H224C230.365 128 236.47 130.529 240.971 135.029C245.471 139.53 248 145.635 248 152C248 158.365 245.471 164.47 240.971 168.971C236.47 173.471 230.365 176 224 176H56C49.6348 176 43.5303 173.471 39.0294 168.971C34.5286 164.47 32 158.365 32 152ZM320 400C341.217 400 361.566 391.571 376.569 376.569C391.571 361.566 400 341.217 400 320C400 298.783 391.571 278.434 376.569 263.431C361.566 248.429 341.217 240 320 240C298.783 240 278.434 248.429 263.431 263.431C248.429 278.434 240 298.783 240 320C240 341.217 248.429 361.566 263.431 376.569C278.434 391.571 298.783 400 320 400ZM320 448C346.688 448 371.424 439.84 391.936 425.888L439.04 472.96C441.237 475.318 443.887 477.209 446.831 478.521C449.775 479.833 452.953 480.538 456.175 480.595C459.398 480.652 462.599 480.059 465.587 478.852C468.576 477.645 471.29 475.848 473.569 473.569C475.848 471.29 477.645 468.576 478.852 465.587C480.059 462.599 480.652 459.398 480.595 456.175C480.538 452.953 479.833 449.775 478.521 446.831C477.209 443.887 475.318 441.237 472.96 439.04L425.888 391.936C441.949 368.298 449.637 339.966 447.729 311.452C445.82 282.938 434.424 255.883 415.357 234.596C396.289 213.31 370.647 199.016 342.514 193.993C314.381 188.97 285.376 193.505 260.12 206.878C234.864 220.25 214.809 241.689 203.151 267.781C191.492 293.872 188.9 323.115 195.788 350.85C202.676 378.586 218.647 403.218 241.157 420.824C263.667 438.43 291.422 447.997 320 448ZM56 224C49.6348 224 43.5303 226.529 39.0294 231.029C34.5286 235.53 32 241.635 32 248C32 254.365 34.5286 260.47 39.0294 264.971C43.5303 269.471 49.6348 272 56 272H128C134.365 272 140.47 269.471 144.971 264.971C149.471 260.47 152 254.365 152 248C152 241.635 149.471 235.53 144.971 231.029C140.47 226.529 134.365 224 128 224H56Z" fill="#D0D0CF"/>
</svg>
