<svg width="512" height="512" viewBox="0 0 512 512" fill="none" xmlns="http://www.w3.org/2000/svg">
<path d="M490.667 256C490.667 385.707 385.707 490.667 256 490.667C126.294 490.667 21.3335 385.707 21.3335 256C21.3335 126.293 126.294 21.3333 256 21.3333C385.707 21.3333 490.667 126.293 490.667 256ZM277.334 86.6133C322.774 92.3733 364.16 116.267 391.894 152.747L429.014 131.413C411.484 106.697 388.89 85.9985 362.736 70.6961C336.582 55.3937 307.469 45.8385 277.334 42.6666V86.6133ZM82.9868 131.413L120.107 152.747C133.857 134.672 151.068 119.515 170.737 108.161C190.406 96.8065 212.138 89.4816 234.667 86.6133V42.6666C204.532 45.8385 175.418 55.3937 149.264 70.6961C123.11 85.9985 100.516 106.697 82.9868 131.413ZM61.6535 343.467L98.5602 322.133C89.7942 301.187 85.2799 278.707 85.2799 256C85.2799 233.293 89.7942 210.813 98.5602 189.867L61.6535 168.533C49.1021 195.984 42.6058 225.815 42.6058 256C42.6058 286.184 49.1021 316.015 61.6535 343.467ZM234.667 425.387C212.138 422.518 190.406 415.193 170.737 403.839C151.068 392.485 133.857 377.328 120.107 359.253L82.9868 380.587C100.516 405.303 123.11 426.001 149.264 441.304C175.418 456.606 204.532 466.161 234.667 469.333V425.387ZM429.014 380.587L391.894 359.253C378.143 377.328 360.932 392.485 341.263 403.839C321.595 415.193 299.862 422.518 277.334 425.387V468.053C338.134 461.867 393.387 430.08 429.014 380.587ZM450.347 343.467C475.734 288 475.734 224 450.347 168.533L413.44 189.867C422.206 210.813 426.72 233.293 426.72 256C426.72 278.707 422.206 301.187 413.44 322.133L450.347 343.467ZM320 256L256 149.333L192 256L256 362.667L320 256Z" fill="#D0D0CF"/>
</svg>
