<svg width="512" height="512" viewBox="0 0 512 512" fill="none" xmlns="http://www.w3.org/2000/svg">
<path d="M362.667 224V149.333C362.667 143.675 360.419 138.249 356.418 134.248C352.418 130.248 346.991 128 341.333 128H85.3333C79.6754 128 74.2492 130.248 70.2484 134.248C66.2476 138.249 64 143.675 64 149.333V362.667C64 368.325 66.2476 373.751 70.2484 377.752C74.2492 381.752 79.6754 384 85.3333 384H341.333C346.991 384 352.418 381.752 356.418 377.752C360.419 373.751 362.667 368.325 362.667 362.667V288L448 373.333V138.667L362.667 224Z" fill="#D0D0CF"/>
</svg>
