<svg width="512" height="512" viewBox="0 0 512 512" fill="none" xmlns="http://www.w3.org/2000/svg">
<circle cx="256" cy="259" r="245" fill="#F6F9F4"/>
<path d="M379.57 317.967C371.444 344.541 356.291 365.954 334.109 382.206C311.928 398.457 286.892 406.583 259 406.583C231.109 406.583 206.072 398.457 183.891 382.206C161.709 365.954 146.556 344.541 138.43 317.967C136.673 312.477 137.112 307.151 139.747 301.99C142.383 296.829 146.556 293.37 152.266 291.613C157.756 289.856 163.082 290.296 168.243 292.931C173.404 295.566 176.863 299.739 178.62 305.449C184.11 323.019 194.268 337.239 209.092 348.11C223.916 358.981 240.552 364.417 259 364.417C277.448 364.417 294.084 358.981 308.908 348.11C323.732 337.239 333.89 323.019 339.38 305.449C341.137 299.739 344.651 295.566 349.922 292.931C355.193 290.296 360.573 289.856 366.064 291.613C371.554 293.37 375.617 296.829 378.253 301.99C380.888 307.151 381.327 312.477 379.57 317.967ZM216.833 174.667C216.833 186.306 212.716 196.244 204.48 204.48C196.244 212.716 186.306 216.833 174.667 216.833C163.027 216.833 153.089 212.716 144.854 204.48C136.618 196.244 132.5 186.306 132.5 174.667C132.5 163.027 136.618 153.089 144.854 144.854C153.089 136.618 163.027 132.5 174.667 132.5C186.306 132.5 196.244 136.618 204.48 144.854C212.716 153.089 216.833 163.027 216.833 174.667ZM385.5 174.667C385.5 186.306 381.382 196.244 373.146 204.48C364.911 212.716 354.973 216.833 343.333 216.833C331.694 216.833 321.756 212.716 313.52 204.48C305.285 196.244 301.167 186.306 301.167 174.667C301.167 163.027 305.285 153.089 313.52 144.854C321.756 136.618 331.694 132.5 343.333 132.5C354.973 132.5 364.911 136.618 373.146 144.854C381.382 153.089 385.5 163.027 385.5 174.667ZM469.833 259C469.833 230.45 464.233 203.162 453.033 177.137C441.832 151.113 426.843 128.712 408.066 109.934C389.288 91.1569 366.887 76.168 340.863 64.9674C314.838 53.7669 287.55 48.1667 259 48.1667C230.45 48.1667 203.162 53.7669 177.137 64.9674C151.113 76.168 128.712 91.1569 109.934 109.934C91.1569 128.712 76.168 151.113 64.9674 177.137C53.7669 203.162 48.1667 230.45 48.1667 259C48.1667 287.55 53.7669 314.838 64.9674 340.863C76.168 366.887 91.1569 389.288 109.934 408.066C128.712 426.843 151.113 441.832 177.137 453.033C203.162 464.233 230.45 469.833 259 469.833C287.55 469.833 314.838 464.233 340.863 453.033C366.887 441.832 389.288 426.843 408.066 408.066C426.843 389.288 441.832 366.887 453.033 340.863C464.233 314.838 469.833 287.55 469.833 259ZM512 259C512 304.9 500.69 347.232 478.069 385.994C455.448 424.757 424.757 455.448 385.994 478.069C347.232 500.69 304.9 512 259 512C213.1 512 170.768 500.69 132.006 478.069C93.2433 455.448 62.5517 424.757 39.931 385.994C17.3103 347.232 6 304.9 6 259C6 213.1 17.3103 170.768 39.931 132.006C62.5517 93.2433 93.2433 62.5517 132.006 39.931C170.768 17.3103 213.1 6 259 6C304.9 6 347.232 17.3103 385.994 39.931C424.757 62.5517 455.448 93.2433 478.069 132.006C500.69 170.768 512 213.1 512 259Z" fill="#3182CE"/>
</svg>
