<svg width="620" height="620" viewBox="0 0 620 620" fill="none" xmlns="http://www.w3.org/2000/svg">
<circle cx="310" cy="305" r="240" fill="#F6F9F4"/>
<path d="M209.234 254.774L209.941 254.067L209.234 253.36L179.581 223.707L198.407 204.881L228.059 234.534L228.766 235.241L229.474 234.534L259.126 204.881L277.952 223.707L248.299 253.36L247.592 254.067L248.299 254.774L277.952 284.427L259.126 303.253L229.474 273.6L228.766 272.893L228.059 273.6L198.407 303.253L179.581 284.427L209.234 254.774ZM361.034 254.774L361.741 254.067L361.034 253.36L331.381 223.707L350.207 204.881L379.859 234.534L380.566 235.241L381.274 234.534L410.926 204.881L429.752 223.707L400.099 253.36L399.392 254.067L400.099 254.774L429.752 284.427L410.926 303.253L381.274 273.6L380.566 272.893L379.859 273.6L350.207 303.253L331.381 284.427L361.034 254.774ZM304.667 508.067C358.612 508.067 410.347 486.637 448.492 448.492C486.637 410.347 508.066 358.612 508.066 304.667C508.066 250.722 486.637 198.986 448.492 160.841C410.347 122.696 358.612 101.267 304.667 101.267C250.721 101.267 198.986 122.696 160.841 160.841C122.696 198.986 101.267 250.722 101.267 304.667C101.267 358.612 122.696 410.347 160.841 448.492C198.986 486.637 250.721 508.067 304.667 508.067ZM304.667 556.667C165.487 556.667 52.6665 443.846 52.6665 304.667C52.6665 165.487 165.487 52.6667 304.667 52.6667C443.846 52.6667 556.667 165.487 556.667 304.667C556.667 443.846 443.846 556.667 304.667 556.667ZM339.739 415.639C330.437 424.941 317.821 430.167 304.667 430.167C291.512 430.167 278.896 424.941 269.594 415.639C260.292 406.337 255.066 393.721 255.066 380.567C255.066 367.412 260.292 354.796 269.594 345.494C278.896 336.192 291.512 330.967 304.667 330.967C317.821 330.967 330.437 336.192 339.739 345.494C349.041 354.796 354.266 367.412 354.266 380.567C354.266 393.721 349.041 406.337 339.739 415.639Z" fill="#D33F8D" stroke="#F6F9F4" stroke-width="2"/>
</svg>
